<svg xmlns="http://www.w3.org/2000/svg" viewBox="0 0 512 512">
  <defs>
    <linearGradient id="lg-tape" x1="0" y1="0" x2="1" y2="0">
      <stop offset="0" stop-color="#FFE08A"/>
      <stop offset="0.5" stop-color="#F8CA55"/>
      <stop offset="1" stop-color="#EAAE2E"/>
    </linearGradient>
    <linearGradient id="lg-metal" x1="0" y1="0" x2="0" y2="1">
      <stop offset="0" stop-color="#D9DEE6"/>
      <stop offset="0.5" stop-color="#A9B1BD"/>
      <stop offset="1" stop-color="#7E8794"/>
    </linearGradient>
    <filter id="lg-blur4" x="-40%" y="-40%" width="180%" height="180%"><feGaussianBlur stdDeviation="4"/></filter>
    <filter id="lg-blur8" x="-60%" y="-60%" width="220%" height="220%"><feGaussianBlur stdDeviation="8"/></filter>
  </defs>

  <!-- tape shadow cast on the chin -->
  <ellipse cx="266" cy="336" rx="46" ry="10" fill="#062E2B" opacity="0.35" filter="url(#lg-blur8)"/>

  <!-- tape tongue: emerges THROUGH the mouth slot, over the lower lip -->
  <g transform="rotate(7 264 320)">
    <rect x="228" y="302" width="72" height="150" rx="9" fill="url(#lg-tape)"/>
    <rect x="234" y="306" width="10" height="142" rx="5" fill="#FFFFFF" opacity="0.45" filter="url(#lg-blur4)"/>
    <g stroke="#A96F14" stroke-width="5" stroke-linecap="round">
      <line x1="240" y1="344" x2="264" y2="344"/>
      <line x1="240" y1="372" x2="254" y2="372"/>
      <line x1="240" y1="400" x2="264" y2="400"/>
      <line x1="240" y1="426" x2="254" y2="426"/>
    </g>
    <rect x="222" y="448" width="84" height="17" rx="7" fill="url(#lg-metal)"/>
    <rect x="226" y="450" width="76" height="5" rx="2.5" fill="#FFFFFF" opacity="0.6"/>
  </g>

  <!-- mouth slot ON TOP of tape: the tape visibly exits its lower lip -->
  <rect x="216" y="288" width="96" height="26" rx="13" fill="#0A3532"/>
  <rect x="220" y="290" width="88" height="6" rx="3" fill="#000000" opacity="0.45"/>
  <rect x="222" y="306" width="84" height="4" rx="2" fill="#5ECFC7" opacity="0.35"/>
  <!-- soft shading where the tape bends over the lip -->
  <rect x="232" y="312" width="66" height="8" fill="#7A5410" opacity="0.35" filter="url(#lg-blur4)"/>
</svg>
